HIERARCHY
ROOT Hips
{
	OFFSET 0.00000 0.00000 0.00000
	CHANNELS 6 Xposition Yposition Zposition Zrotation Yrotation Xrotation 
	JOINT LHipJoint
	{
		OFFSET 0 0 0
		CHANNELS 3 Zrotation Yrotation Xrotation
		JOINT LeftUpLeg
		{
			OFFSET 1.53794 -1.55850 0.93568
			CHANNELS 3 Zrotation Yrotation Xrotation
			JOINT LeftLeg
			{
				OFFSET 2.28545 -6.27922 0.00000
				CHANNELS 3 Zrotation Yrotation Xrotation
				JOINT LeftFoot
				{
					OFFSET 2.37329 -6.52057 0.00000
					CHANNELS 3 Zrotation Yrotation Xrotation
					JOINT LeftToeBase
					{
						OFFSET 0.14846 -0.40788 2.09160
						CHANNELS 3 Zrotation Yrotation Xrotation
						End Site
						{
							OFFSET 0.00000 -0.00000 1.07536
						}
					}
				}
			}
		}
	}
	JOINT RHipJoint
	{
		OFFSET 0 0 0
		CHANNELS 3 Zrotation Yrotation Xrotation
		JOINT RightUpLeg
		{
			OFFSET -1.78290 -1.55850 0.93568
			CHANNELS 3 Zrotation Yrotation Xrotation
			JOINT RightLeg
			{
				OFFSET -2.24144 -6.15831 0.00000
				CHANNELS 3 Zrotation Yrotation Xrotation
				JOINT RightFoot
				{
					OFFSET -2.35091 -6.45907 0.00000
					CHANNELS 3 Zrotation Yrotation Xrotation
					JOINT RightToeBase
					{
						OFFSET -0.14428 -0.39641 2.07944
						CHANNELS 3 Zrotation Yrotation Xrotation
						End Site
						{
							OFFSET -0.00000 -0.00000 1.06864
						}
					}
				}
			}
		}
	}
	JOINT LowerBack
	{
		OFFSET 0 0 0
		CHANNELS 3 Zrotation Yrotation Xrotation
		JOINT Spine
		{
			OFFSET -0.08841 2.11430 -0.15818
			CHANNELS 3 Zrotation Yrotation Xrotation
			JOINT Spine1
			{
				OFFSET -0.00033 2.12605 -0.08097
				CHANNELS 3 Zrotation Yrotation Xrotation
				JOINT Neck
				{
					OFFSET 0 0 0
					CHANNELS 3 Zrotation Yrotation Xrotation
					JOINT Neck1
					{
						OFFSET 0.04431 1.59447 0.43193
						CHANNELS 3 Zrotation Yrotation Xrotation
						JOINT Head
						{
							OFFSET 0.00455 1.62017 -0.58852
							CHANNELS 3 Zrotation Yrotation Xrotation
							End Site
							{
								OFFSET -0.00920 1.72955 -0.25850
							}
						}
					}
				}
				JOINT LeftShoulder
				{
					OFFSET 0 0 0
					CHANNELS 3 Zrotation Yrotation Xrotation
					JOINT LeftArm
					{
						OFFSET 2.86490 1.49927 -0.33774
						CHANNELS 3 Zrotation Yrotation Xrotation
						JOINT LeftForeArm
						{
							OFFSET 4.87408 -0.00000 0.00000
							CHANNELS 3 Zrotation Yrotation Xrotation
							JOINT LeftHand
							{
								OFFSET 2.76729 -0.00000 0.00000
								CHANNELS 3 Zrotation Yrotation Xrotation
								JOINT LeftFingerBase
								{
									OFFSET 0 0 0
									CHANNELS 3 Zrotation Yrotation Xrotation
									JOINT LeftHandIndex1
									{
										OFFSET 0.98922 -0.00000 0.00000
										CHANNELS 3 Zrotation Yrotation Xrotation
										End Site
										{
											OFFSET 0.79753 -0.00000 0.00000
										}
									}
								}
								JOINT LThumb
								{
									OFFSET 0 0 0
									CHANNELS 3 Zrotation Yrotation Xrotation
									End Site
									{
										OFFSET 0.80972 -0.00000 0.80972
									}
								}
							}
						}
					}
				}
				JOINT RightShoulder
				{
					OFFSET 0 0 0
					CHANNELS 3 Zrotation Yrotation Xrotation
					JOINT RightArm
					{
						OFFSET -2.94414 1.45463 -0.25291
						CHANNELS 3 Zrotation Yrotation Xrotation
						JOINT RightForeArm
						{
							OFFSET -4.71404 -0.00000 0.00000
							CHANNELS 3 Zrotation Yrotation Xrotation
							JOINT RightHand
							{
								OFFSET -2.83468 -0.00000 0.00000
								CHANNELS 3 Zrotation Yrotation Xrotation
								JOINT RightFingerBase
								{
									OFFSET 0 0 0
									CHANNELS 3 Zrotation Yrotation Xrotation
									JOINT RightHandIndex1
									{
										OFFSET -0.86820 -0.00000 0.00000
										CHANNELS 3 Zrotation Yrotation Xrotation
										End Site
										{
											OFFSET -0.69996 -0.00000 0.00000
										}
									}
								}
								JOINT RThumb
								{
									OFFSET 0 0 0
									CHANNELS 3 Zrotation Yrotation Xrotation
									End Site
									{
										OFFSET -0.71065 -0.00000 0.71065
									}
								}
							}
						}
					}
				}
			}
		}
	}
}
MOTION
Frames: 11
Frame Time: 0.0384615
0.00 0.00 0.00 -180.1180 5.3963 -118.5990 0.0000 0.0000 0.0000 4.5412 4.5495 -95.3990 35.9027 12.2887 143.2389 0.3440 14.6406 -24.1357 0.5823 -4.8860 -13.5838 0.0000 0.0000 0.0000 20.0459 17.7785 -31.9821 -26.9688 -18.7934 110.7777 1.3291 -20.7888 -1.3372 -2.8418 10.4344 -30.3952 0.1974 -0.6876 29.7036 -11.8733 -1.4718 0.6505 -13.0671 -0.7558 -15.8108 10.1540 2.2666 -26.5477 5.5343 -2.6138 17.5733 -0.0809 0.0285 10.0052 -0.0000 0.0000 0.0000 -47.3356 -31.8463 40.2331 32.1602 -42.6745 -12.8493 -0.0000 -0.0000 34.9630 46.0363 14.5169 14.5690 -7.1250 0.0000 -0.0000 18.5490 49.5075 2.1272 -0.0000 0.0000 0.0000 99.2135 35.6385 25.1352 -33.9609 44.0557 -14.0859 0.0000 0.0000 27.6339 -54.6804 -16.3821 21.7052 7.1250 -0.0000 -0.0000 -29.6319 -54.3554 7.2975
0.00 0.00 0.00 -178.2930 5.4882 -115.9950 0.0000 0.0000 0.0000 0.4837 -1.7372 -89.1262 35.8673 12.3350 143.0725 -0.6513 20.1102 -22.7349 0.8334 -5.8240 -16.2746 0.0000 0.0000 0.0000 19.2565 12.6032 -29.6122 -27.0892 -18.7497 111.1519 1.9541 -24.2378 -14.3162 -1.9394 8.7387 -24.9812 0.0347 -1.7484 30.2527 -9.6608 -3.2196 -1.0467 -9.6850 -1.6505 -18.2302 10.4535 3.4925 -26.5948 4.4370 -0.7986 17.2773 -0.2298 0.7276 9.9196 0.0000 0.0000 0.0000 -36.6027 -35.6530 13.4482 59.4527 -56.1623 -33.8861 -0.0000 -0.0000 35.3736 49.1192 15.6345 17.2929 -7.1250 0.0000 -0.0000 22.3368 51.7289 3.8620 0.0000 0.0000 0.0000 100.7471 28.7528 31.8443 -32.1006 42.6272 -12.8089 0.0000 0.0000 28.5207 -58.8929 -17.5005 26.4897 7.1250 -0.0000 -0.0000 -36.6977 -57.3394 12.1873
0.00 0.00 0.00 -175.0990 4.6474 -115.6530 0.0000 0.0000 0.0000 1.5534 -6.9292 -80.7905 34.2296 14.2021 135.9467 -0.9352 22.0203 -23.4657 0.9023 -6.0537 -16.9403 0.0000 0.0000 0.0000 15.4611 12.4244 -36.2847 -28.1026 -18.3470 114.3366 1.3775 -22.4843 -19.1640 -2.3586 9.5762 -27.6149 1.0382 -0.8129 34.2702 -7.6636 -1.7453 -2.0572 -8.6934 -1.2143 -21.0164 10.2336 3.3584 -26.4998 3.4000 -0.5428 17.3415 -0.5227 0.7370 9.9103 0.0000 -0.0000 0.0000 -10.7967 -52.9848 -11.5282 36.6453 -45.9519 -15.9846 -0.0000 -0.0000 29.6667 35.1324 16.6312 11.3867 -7.1250 0.0000 -0.0000 7.3161 49.9032 0.8885 0.0000 -0.0000 0.0000 97.5387 27.3523 28.5165 -29.5926 40.5416 -11.1438 0.0000 0.0000 30.0017 -59.1139 -18.2184 27.5948 7.1250 -0.0000 -0.0000 -37.7700 -58.3891 13.6051
0.00 0.00 0.00 -169.5830 3.6247 -116.2790 0.0000 0.0000 0.0000 -7.0475 -18.8808 -63.3767 30.1006 17.3529 120.8483 -2.9844 29.9255 -20.7939 0.8696 -5.9456 -16.6267 0.0000 0.0000 0.0000 4.7489 7.3774 -60.7958 -31.8288 -16.2437 126.8230 -0.9593 -11.5580 -26.0178 -2.8422 10.4351 -30.3975 3.8677 -0.4617 38.5226 -4.0776 0.5842 -2.0376 -7.2575 -0.4306 -22.3202 7.9552 3.0036 -26.5902 2.8039 0.7431 17.1678 -0.1343 1.3514 9.8520 0.0000 -0.0000 0.0000 -16.1662 -60.1859 -9.6776 27.4112 -38.5685 -9.7544 -0.0000 -0.0000 32.4221 34.0521 13.7929 9.1532 -7.1250 0.0000 -0.0000 6.3141 46.3866 0.2169 0.0000 -0.0000 0.0000 89.2613 28.6915 23.8832 -22.7432 33.8068 -6.9949 0.0000 0.0000 33.8889 -53.0506 -17.6255 21.9278 7.1250 -0.0000 -0.0000 -28.1781 -55.5183 7.7181
0.00 0.00 0.00 -176.9330 -0.7819 -121.8360 0.0000 0.0000 0.0000 -18.8848 -30.8923 -40.4615 24.9605 19.3995 104.6444 -4.9686 35.8927 -16.3437 1.1155 -6.7096 -18.8577 0.0000 0.0000 0.0000 -2.6515 -4.3064 -84.3386 -35.5601 -12.7239 141.6565 -3.0116 -3.0568 -33.9961 -3.2659 11.1136 -32.6640 1.6394 0.0286 35.7014 2.1299 1.8446 1.6759 0.5470 1.0455 -16.4133 4.1074 1.1494 -28.6169 -0.3992 0.0312 17.1259 -0.7948 0.2591 10.1176 0.0000 0.0000 0.0000 -49.8388 -65.7761 15.5956 23.3644 -34.4849 -7.3436 -0.0000 -0.0000 39.5295 41.7930 17.0071 14.6521 -7.1250 0.0000 -0.0000 14.3862 51.7186 2.4220 0.0000 0.0000 0.0000 73.4397 18.7851 9.4752 -38.0510 46.8718 -17.0028 0.0000 0.0000 25.2565 -49.6607 -7.2919 8.5003 7.1250 -0.0000 -0.0000 -20.0905 -40.3108 -2.4358
0.00 0.00 0.00 -184.5460 -5.8620 -120.9670 0.0000 0.0000 0.0000 -22.5883 -33.3135 -24.2761 19.1349 19.9820 87.4700 -5.1857 36.7251 -11.2020 1.0719 -6.5815 -18.4814 0.0000 0.0000 0.0000 -2.4256 5.7226 -78.5939 -34.5495 -13.8738 137.2656 -2.2147 -6.9851 -31.2911 -3.1754 10.9737 -32.1914 5.2119 -2.2065 30.3894 0.5880 -1.5454 1.8420 -1.5270 -1.2015 -13.9766 4.7246 0.2831 -29.1702 1.5882 -2.0410 18.0077 -0.5278 -0.3968 10.5156 -0.0000 0.0000 0.0000 -64.9606 -57.2025 33.1313 22.8105 -33.8809 -7.0324 -0.0000 -0.0000 41.4637 49.5076 17.5237 19.4246 -7.1250 0.0000 -0.0000 23.5157 54.3252 5.6248 -0.0000 0.0000 0.0000 56.8433 46.5033 5.4052 -50.8707 53.3407 -26.8711 0.0000 0.0000 29.9669 -41.4675 -4.6326 4.0825 7.1250 -0.0000 -0.0000 -12.3867 -35.9132 -2.8205
0.00 0.00 0.00 -197.3300 -8.2696 -115.4140 0.0000 0.0000 0.0000 -9.1928 -17.9001 -48.3469 22.4207 19.8589 97.0936 -0.4629 12.1922 -1.9341 0.3800 -3.9590 -10.9614 0.0000 0.0000 0.0000 5.2560 13.4337 -67.3572 -30.5537 -17.0865 122.3788 -1.5720 -12.2380 -30.8602 -4.0064 12.1689 -36.3319 -0.2026 -3.9877 28.5229 -2.4950 -6.1760 2.7811 -0.3026 -3.0935 -12.9454 5.4394 -0.4243 -26.7198 3.4246 -3.5777 17.2356 -0.2271 -0.8848 9.8429 -0.0000 -0.0000 0.0000 -61.1655 -53.7895 29.1338 18.4493 -28.7287 -4.7633 -0.0000 -0.0000 47.3192 52.9141 17.0289 21.1773 -7.1250 0.0000 -0.0000 27.6609 54.6770 6.9749 -0.0000 -0.0000 0.0000 62.6959 63.9110 7.6555 -28.3075 39.3977 -10.3182 0.0000 0.0000 36.8213 -42.5096 -8.3363 7.5701 7.1250 -0.0000 -0.0000 -13.8598 -40.8243 -1.4589
0.00 0.00 0.00 -201.0420 -9.1052 -116.2770 0.0000 0.0000 0.0000 -3.2415 -16.3018 -61.6939 27.9960 18.3923 113.9986 -0.5953 13.5188 -5.1497 0.3263 -3.6717 -10.1549 0.0000 0.0000 0.0000 8.1771 13.9664 -61.3280 -28.6036 -18.1237 115.9377 -1.7380 -12.5039 -32.0966 -4.5138 12.8144 -38.6775 -1.2046 -4.5161 28.5114 -3.7411 -7.5398 4.3542 -0.6748 -3.8347 -11.1989 6.8703 -0.5114 -26.5451 3.5116 -4.2650 17.1992 -0.5301 -1.1058 9.7774 -0.0000 -0.0000 0.0000 -56.3008 -55.4155 26.7600 16.2008 -25.7922 -3.7329 -0.0000 -0.0000 48.3303 51.2511 17.0712 20.0916 -7.1250 0.0000 -0.0000 25.5239 54.2323 6.0934 -0.0000 -0.0000 0.0000 66.7934 65.6780 11.4408 -24.2940 35.4736 -7.8765 0.0000 0.0000 35.2666 -49.1836 -9.9131 11.2728 7.1250 -0.0000 -0.0000 -20.4707 -43.9400 -0.5603
0.00 0.00 0.00 -203.8200 -9.5418 -120.2030 0.0000 0.0000 0.0000 3.2077 -13.5199 -77.2523 32.6870 15.5899 129.9518 -0.7467 16.0959 -12.0185 0.3501 -3.8014 -10.5187 0.0000 0.0000 0.0000 11.6222 12.3960 -53.1078 -26.9769 -18.7905 110.8028 -1.9460 -12.5041 -33.3264 -4.5549 12.8643 -38.8626 -2.2289 -3.6451 29.9785 -5.0239 -7.2823 6.8140 -1.6134 -3.9126 -9.1680 7.8194 -1.4475 -26.9747 3.6209 -5.9618 17.3107 -0.9066 -1.7901 9.8455 0.0000 0.0000 0.0000 -52.7275 -58.4027 29.1226 15.0389 -24.2003 -3.2419 -0.0000 -0.0000 46.7046 43.5429 12.5582 11.6755 -7.1250 0.0000 -0.0000 15.5494 46.4554 0.5721 0.0000 0.0000 0.0000 67.7273 67.6750 6.8473 -19.7120 30.2938 -5.3853 0.0000 0.0000 37.7173 -53.5637 -9.8520 13.0492 7.1250 -0.0000 -0.0000 -24.7956 -44.7223 -0.1815
0.00 0.00 0.00 -190.8350 0.1109 -139.4860 0.0000 0.0000 0.0000 5.3938 -18.6648 -130.0792 32.1038 16.0424 127.8119 -1.1202 18.6203 -10.5086 0.7864 -5.6613 -15.8048 0.0000 0.0000 0.0000 20.5589 19.0235 -21.1832 -22.4835 -19.8515 97.2786 -0.7940 -20.0512 -33.5917 -4.2442 12.4785 -37.4464 -1.1048 4.6747 27.3674 -3.2315 1.6091 16.8011 -3.3876 -0.5066 3.8307 2.8897 -2.5030 -28.5356 0.4515 -4.7390 18.6443 -1.0961 -1.8703 10.5931 -0.0000 0.0000 0.0000 -60.6450 -59.6798 30.4350 29.4888 -40.4512 -11.0765 -0.0000 -0.0000 38.2191 39.5325 9.5097 7.7644 -7.1250 0.0000 -0.0000 11.3017 41.9597 -0.8598 -0.0000 0.0000 0.0000 41.9345 74.1671 -23.5608 -11.1803 18.5641 -1.8329 0.0000 0.0000 46.5097 -56.5417 -11.0047 16.1118 7.1250 -0.0000 -0.0000 -28.5600 -47.1755 1.6648
0.00 0.00 0.00 -184.5020 6.0963 -130.9780 0.0000 0.0000 0.0000 4.8121 -20.8327 -125.6068 30.0636 17.3739 120.7245 -3.0785 29.7566 -18.0472 0.7485 -5.5262 -15.4157 0.0000 0.0000 0.0000 10.5517 18.9557 -27.7751 -16.8173 -19.7554 80.6578 -0.1318 -17.5996 -26.0529 -4.6218 12.9448 -39.1621 -5.1597 3.4221 18.2120 -0.2309 6.8704 14.4698 1.7902 4.0595 5.1379 0.1324 -3.3848 -34.7388 -1.4027 -4.4185 17.6801 -1.3835 -2.1974 11.2614 0.0000 0.0000 0.0000 -77.2543 -53.1306 41.3272 41.3789 -48.8660 -19.4715 -0.0000 -0.0000 34.9611 36.1551 8.0991 5.8775 -7.1250 0.0000 -0.0000 8.1528 39.8467 -1.0436 0.0000 0.0000 0.0000 31.6751 70.9922 -39.1790 -8.0619 13.6532 -0.9667 0.0000 0.0000 61.0791 -49.6369 -11.0613 12.7200 7.1250 -0.0000 -0.0000 -21.2990 -45.6284 0.3462
